<?xml version="1.0" standalone="no"?>
<!DOCTYPE svg PUBLIC "-//W3C//DTD SVG 20010904//EN"
 "http://www.w3.org/TR/2001/REC-SVG-20010904/DTD/svg10.dtd">
<svg version="1.0" xmlns="http://www.w3.org/2000/svg"
 width="512.000000pt" height="512.000000pt" viewBox="0 0 512.000000 512.000000"
 preserveAspectRatio="xMidYMid meet">
<metadata>
Created by potrace 1.14, written by Peter Selinger 2001-2017
</metadata>
<g transform="translate(0.000000,512.000000) scale(0.100000,-0.100000)"
fill="#000000" stroke="none">
<path d="M1884 4879 c-50 -10 -123 -32 -163 -48 -75 -30 -209 -103 -239 -130
-9 -9 -37 -32 -62 -52 -76 -62 -176 -166 -220 -229 -13 -19 -27 -37 -30 -40
-3 -3 -16 -22 -30 -43 -18 -28 -43 -47 -90 -68 -336 -155 -579 -356 -738 -610
-46 -72 -53 -114 -24 -145 18 -18 17 -21 -11 -86 -27 -60 -33 -66 -59 -66 -15
1 -37 -7 -48 -17 -16 -15 -46 -84 -54 -128 -2 -7 -8 -32 -15 -57 -7 -25 -15
-53 -17 -62 -11 -49 -15 -67 -24 -118 -6 -30 -12 -64 -14 -75 -2 -12 -7 -48
-11 -80 -4 -33 -9 -71 -11 -85 -26 -167 -26 -773 1 -1055 2 -22 6 -71 10 -110
8 -97 29 -286 40 -370 2 -16 7 -52 10 -80 3 -27 8 -61 10 -75 3 -14 7 -47 10
-75 3 -27 8 -61 10 -75 3 -14 8 -43 10 -65 3 -22 12 -78 20 -125 8 -47 17
-103 20 -125 17 -114 48 -187 108 -252 220 -240 610 -136 682 181 15 65 14 82
-15 316 -5 41 -12 98 -15 125 -3 28 -8 64 -10 80 -6 47 -14 115 -21 175 -3 30
-7 66 -10 80 -11 68 -14 120 -6 120 5 0 36 -9 69 -20 125 -41 256 -61 412 -64
l79 -1 18 -60 c31 -107 184 -563 230 -688 25 -67 55 -138 67 -157 60 -98 165
-176 275 -205 69 -17 271 -20 342 -4 112 25 237 121 292 224 21 40 48 122 62
190 13 60 20 75 34 76 103 7 915 2 921 -6 5 -5 18 -50 30 -100 51 -212 159
-333 337 -380 78 -20 306 -19 378 2 127 38 222 120 283 245 152 310 328 872
369 1175 3 26 8 51 10 54 2 3 6 42 10 85 3 43 9 83 11 87 3 5 7 104 8 220 4
286 -10 404 -74 652 -34 128 -93 298 -111 318 -9 10 -32 19 -50 21 -30 2 -35
8 -63 70 -19 43 -27 70 -20 74 18 12 31 46 27 71 -5 31 -103 180 -168 256
-151 177 -327 289 -541 344 -58 15 -178 33 -222 34 -6 0 -19 21 -29 46 -80
216 -239 426 -419 553 -122 86 -303 165 -423 184 -60 10 -193 11 -249 2 -51
-8 -55 -7 -141 42 -95 54 -210 99 -319 126 -104 25 -316 27 -429 3z"/>
</g>
</svg>
